<svg width="28" height="28" viewBox="0 0 28 28" fill="none" xmlns="http://www.w3.org/2000/svg">
<g id="streamline:graph-bar-increase-solid">
<path id="Vector" fill-rule="evenodd" clip-rule="evenodd" d="M19.994 0.439992C20.204 0.229408 20.4718 0.0859839 20.7634 0.0279384C21.0551 -0.030107 21.3574 -0.000154227 21.632 0.113992L25.886 1.87799C26.2529 2.02947 26.5447 2.32017 26.6977 2.68642C26.8506 3.05266 26.8522 3.4646 26.702 3.83199L24.964 8.08599C24.8517 8.36069 24.6605 8.59591 24.4145 8.76188C24.1685 8.92786 23.8788 9.01714 23.582 9.01843C23.2853 9.01971 22.9948 8.93294 22.7474 8.7691C22.4999 8.60526 22.3067 8.37171 22.192 8.09799L21.506 6.45799L4.23 13.84C4.04878 13.9175 3.85407 13.9585 3.65699 13.9607C3.45991 13.963 3.26432 13.9264 3.08139 13.853C2.89845 13.7796 2.73176 13.671 2.59083 13.5332C2.4499 13.3954 2.33748 13.2312 2.26 13.05C2.18252 12.8688 2.14149 12.6741 2.13926 12.477C2.13703 12.2799 2.17364 12.0843 2.247 11.9014C2.32036 11.7184 2.42903 11.5518 2.56681 11.4108C2.70459 11.2699 2.86878 11.1575 3.05 11.08L20.348 3.68999L19.674 2.07999C19.5587 1.80572 19.5275 1.50334 19.5845 1.21131C19.6415 0.919279 19.784 0.650793 19.994 0.439992ZM25.5 10.96C26.0304 10.96 26.5391 11.1707 26.9142 11.5458C27.2893 11.9209 27.5 12.4296 27.5 12.96V26.96C27.5 27.2252 27.3946 27.4796 27.2071 27.6671C27.0196 27.8546 26.7652 27.96 26.5 27.96H21.5C21.2348 27.96 20.9804 27.8546 20.7929 27.6671C20.6054 27.4796 20.5 27.2252 20.5 26.96V12.96C20.5 12.4296 20.7107 11.9209 21.0858 11.5458C21.4609 11.1707 21.9696 10.96 22.5 10.96H25.5ZM16.914 14.544C16.5387 14.1696 16.0301 13.9596 15.5 13.96H12.5C11.9696 13.96 11.4609 14.1707 11.0858 14.5458C10.7107 14.9209 10.5 15.4296 10.5 15.96V26.96C10.5 27.2252 10.6054 27.4796 10.7929 27.6671C10.9804 27.8546 11.2348 27.96 11.5 27.96H16.5C16.7652 27.96 17.0196 27.8546 17.2071 27.6671C17.3946 27.4796 17.5 27.2252 17.5 26.96V15.96C17.5002 15.697 17.4486 15.4366 17.348 15.1936C17.2474 14.9507 17.1 14.7299 16.914 14.544ZM5.5 16.96C6.03043 16.96 6.53914 17.1707 6.91421 17.5458C7.28929 17.9209 7.5 18.4296 7.5 18.96V26.96C7.5 27.2252 7.39464 27.4796 7.20711 27.6671C7.01957 27.8546 6.76522 27.96 6.5 27.96H1.5C1.23478 27.96 0.98043 27.8546 0.792893 27.6671C0.605357 27.4796 0.5 27.2252 0.5 26.96V18.96C0.5 18.4296 0.710714 17.9209 1.08579 17.5458C1.46086 17.1707 1.96957 16.96 2.5 16.96H5.5Z" fill="#7209B7"/>
</g>
</svg>
